<svg width="32" height="32" viewBox="0 0 32 32" fill="none" xmlns="http://www.w3.org/2000/svg">
<path d="M0.5 16C0.5 14.5088 1.70883 13.3 3.2 13.3H28.8C30.2912 13.3 31.5 14.5088 31.5 16C31.5 17.4912 30.2912 18.7 28.8 18.7H3.2C1.70883 18.7 0.5 17.4912 0.5 16ZM0.5 3.2C0.5 1.70883 1.70883 0.5 3.2 0.5H28.8C30.2912 0.5 31.5 1.70883 31.5 3.2C31.5 4.69117 30.2912 5.9 28.8 5.9H3.2C1.70883 5.9 0.5 4.69117 0.5 3.2ZM0.5 28.5714C0.5 26.954 1.81117 25.6429 3.42857 25.6429H28.5714C30.1888 25.6429 31.5 26.954 31.5 28.5714C31.5 30.1888 30.1888 31.5 28.5714 31.5H3.42857C1.81117 31.5 0.5 30.1888 0.5 28.5714Z" fill="#D1E5FF" stroke="#EBF3FF"/>
</svg>
